<svg width="450" height="451" viewBox="0 0 450 451" fill="none" xmlns="http://www.w3.org/2000/svg">
<g clip-path="url(#clip0_3664_14248)">
<path d="M142.576 28.5265L168.376 84.9565C170.476 89.5465 175.676 91.8965 180.466 90.3365C191.346 86.8065 202.806 84.5465 214.666 83.7565C219.886 83.4065 223.906 79.0165 223.906 73.7865V11.9665C223.906 6.27653 219.156 1.69652 213.476 1.96652C190.706 3.04652 168.826 7.53653 148.336 14.9365C142.806 16.9365 140.126 23.1865 142.566 28.5265H142.576Z" fill="url(#paint0_radial_3664_14248)" stroke="#1B1B1C" stroke-width="2"/>
<path d="M232.056 12.4465V74.4765C232.056 79.5165 235.806 83.8165 240.816 84.3965C311.436 92.6265 366.206 152.746 365.966 225.617C365.716 302.987 302.636 366.317 225.266 366.867C184.886 367.147 148.386 350.547 122.416 323.697C118.886 320.047 113.146 319.717 109.146 322.837L60.2958 360.957C55.7158 364.527 55.1158 371.257 59.0258 375.557C99.8858 420.437 158.776 448.597 224.256 448.597C347.656 448.597 447.696 348.566 447.696 225.157C447.696 101.747 357.526 11.9065 242.816 2.46652C237.016 1.98652 232.056 6.61651 232.056 12.4365V12.4465Z" fill="url(#paint1_radial_3664_14248)" stroke="#1B1B1C" stroke-width="2"/>
<path d="M160.715 87.7665L134.995 31.5165C132.625 26.3265 126.375 24.1465 121.305 26.7865C49.7154 64.0165 0.81543 138.867 0.81543 225.147C0.81543 272.507 15.5554 316.427 40.6854 352.567C43.9554 357.267 50.5254 358.237 55.0354 354.717L103.805 316.667C107.945 313.437 108.845 307.577 105.945 303.197C91.1554 280.817 82.5354 253.987 82.5354 225.147C82.5354 171.437 112.405 124.707 156.455 100.677C161.045 98.1765 162.885 92.5265 160.715 87.7665Z" fill="url(#paint2_radial_3664_14248)" stroke="#1B1C1C" stroke-width="2"/>
<g filter="url(#filter0_b_3664_14248)">
<rect x="92.8154" y="93.9365" width="262" height="264" rx="131" fill="#26262A"/>
<path d="M199.916 232.652C196.303 232.652 193.081 231.988 190.252 230.658C187.439 229.329 185.206 227.496 183.553 225.161C181.899 222.826 181.039 220.15 180.97 217.133H191.709C191.828 219.161 192.681 220.806 194.266 222.067C195.851 223.329 197.735 223.959 199.916 223.959C201.655 223.959 203.189 223.576 204.519 222.809C205.865 222.025 206.914 220.942 207.664 219.562C208.431 218.164 208.814 216.562 208.814 214.755C208.814 212.914 208.422 211.294 207.638 209.897C206.871 208.499 205.806 207.408 204.442 206.624C203.078 205.84 201.519 205.439 199.763 205.422C198.229 205.422 196.737 205.738 195.289 206.368C193.857 206.999 192.74 207.86 191.939 208.951L182.095 207.187L184.576 179.573H216.587V188.624H193.703L192.348 201.74H192.655C193.576 200.445 194.965 199.371 196.823 198.519C198.681 197.667 200.76 197.24 203.061 197.24C206.215 197.24 209.027 197.982 211.499 199.465C213.97 200.948 215.922 202.985 217.354 205.576C218.786 208.15 219.493 211.116 219.476 214.473C219.493 218.002 218.675 221.138 217.022 223.883C215.385 226.61 213.093 228.758 210.144 230.326C207.212 231.877 203.803 232.652 199.916 232.652ZM246.289 233.087C241.891 233.07 238.107 231.988 234.937 229.84C231.783 227.692 229.354 224.581 227.65 220.508C225.962 216.434 225.127 211.533 225.144 205.806C225.144 200.096 225.988 195.229 227.675 191.206C229.38 187.184 231.809 184.124 234.962 182.027C238.133 179.914 241.908 178.857 246.289 178.857C250.67 178.857 254.437 179.914 257.59 182.027C260.761 184.141 263.198 187.209 264.903 191.232C266.607 195.238 267.451 200.096 267.434 205.806C267.434 211.55 266.582 216.459 264.877 220.533C263.19 224.607 260.769 227.718 257.616 229.866C254.462 232.013 250.687 233.087 246.289 233.087ZM246.289 223.908C249.289 223.908 251.684 222.4 253.474 219.383C255.263 216.366 256.15 211.84 256.133 205.806C256.133 201.834 255.724 198.527 254.905 195.885C254.104 193.243 252.962 191.258 251.479 189.928C250.013 188.598 248.283 187.934 246.289 187.934C243.306 187.934 240.92 189.425 239.13 192.408C237.34 195.391 236.437 199.857 236.42 205.806C236.42 209.829 236.82 213.187 237.621 215.88C238.44 218.556 239.59 220.567 241.073 221.914C242.556 223.243 244.295 223.908 246.289 223.908Z" fill="white"/>
<path d="M179.977 271.937V248.664H189.295C191.007 248.664 192.435 248.918 193.579 249.425C194.723 249.933 195.583 250.637 196.159 251.539C196.734 252.433 197.022 253.463 197.022 254.63C197.022 255.539 196.841 256.338 196.477 257.027C196.113 257.709 195.613 258.27 194.977 258.709C194.348 259.141 193.628 259.448 192.818 259.63V259.857C193.704 259.895 194.534 260.145 195.306 260.607C196.087 261.069 196.719 261.717 197.204 262.55C197.689 263.376 197.931 264.361 197.931 265.505C197.931 266.74 197.625 267.842 197.011 268.812C196.405 269.774 195.507 270.535 194.318 271.096C193.128 271.656 191.663 271.937 189.92 271.937H179.977ZM184.897 267.914H188.909C190.28 267.914 191.28 267.652 191.909 267.13C192.538 266.599 192.852 265.895 192.852 265.016C192.852 264.372 192.697 263.804 192.386 263.312C192.075 262.819 191.632 262.433 191.056 262.152C190.488 261.872 189.81 261.732 189.022 261.732H184.897V267.914ZM184.897 258.402H188.545C189.219 258.402 189.818 258.285 190.341 258.05C190.871 257.808 191.288 257.467 191.591 257.027C191.901 256.588 192.056 256.062 192.056 255.448C192.056 254.607 191.757 253.929 191.159 253.414C190.568 252.899 189.727 252.641 188.636 252.641H184.897V258.402ZM200.402 271.937V254.482H205.243V271.937H200.402ZM202.834 252.232C202.114 252.232 201.497 251.993 200.982 251.516C200.474 251.031 200.22 250.452 200.22 249.777C200.22 249.111 200.474 248.539 200.982 248.062C201.497 247.577 202.114 247.334 202.834 247.334C203.554 247.334 204.167 247.577 204.675 248.062C205.19 248.539 205.448 249.111 205.448 249.777C205.448 250.452 205.19 251.031 204.675 251.516C204.167 251.993 203.554 252.232 202.834 252.232ZM213.322 248.664V271.937H208.481V248.664H213.322ZM221.401 248.664V271.937H216.56V248.664H221.401ZM224.638 271.937V254.482H229.479V271.937H224.638ZM227.07 252.232C226.351 252.232 225.733 251.993 225.218 251.516C224.71 251.031 224.457 250.452 224.457 249.777C224.457 249.111 224.71 248.539 225.218 248.062C225.733 247.577 226.351 247.334 227.07 247.334C227.79 247.334 228.404 247.577 228.911 248.062C229.426 248.539 229.684 249.111 229.684 249.777C229.684 250.452 229.426 251.031 228.911 251.516C228.404 251.993 227.79 252.232 227.07 252.232ZM240.604 272.277C238.838 272.277 237.312 271.902 236.024 271.152C234.744 270.395 233.755 269.342 233.058 267.993C232.361 266.637 232.013 265.065 232.013 263.277C232.013 261.474 232.361 259.899 233.058 258.55C233.755 257.194 234.744 256.141 236.024 255.391C237.312 254.633 238.838 254.255 240.604 254.255C242.369 254.255 243.891 254.633 245.172 255.391C246.46 256.141 247.452 257.194 248.149 258.55C248.846 259.899 249.195 261.474 249.195 263.277C249.195 265.065 248.846 266.637 248.149 267.993C247.452 269.342 246.46 270.395 245.172 271.152C243.891 271.902 242.369 272.277 240.604 272.277ZM240.626 268.527C241.429 268.527 242.1 268.3 242.638 267.846C243.176 267.383 243.581 266.755 243.854 265.959C244.134 265.164 244.274 264.258 244.274 263.243C244.274 262.228 244.134 261.323 243.854 260.527C243.581 259.732 243.176 259.103 242.638 258.641C242.1 258.179 241.429 257.948 240.626 257.948C239.816 257.948 239.134 258.179 238.581 258.641C238.035 259.103 237.623 259.732 237.342 260.527C237.07 261.323 236.933 262.228 236.933 263.243C236.933 264.258 237.07 265.164 237.342 265.959C237.623 266.755 238.035 267.383 238.581 267.846C239.134 268.3 239.816 268.527 240.626 268.527ZM256.543 261.846V271.937H251.702V254.482H256.316V257.562H256.52C256.907 256.546 257.555 255.743 258.464 255.152C259.373 254.554 260.475 254.255 261.77 254.255C262.983 254.255 264.039 254.52 264.941 255.05C265.842 255.58 266.543 256.338 267.043 257.323C267.543 258.3 267.793 259.467 267.793 260.823V271.937H262.952V261.687C262.96 260.618 262.687 259.785 262.134 259.187C261.581 258.58 260.82 258.277 259.85 258.277C259.198 258.277 258.623 258.418 258.123 258.698C257.63 258.978 257.244 259.387 256.964 259.925C256.691 260.455 256.551 261.096 256.543 261.846Z" fill="white"/>
<path d="M157.248 285.343V308.616H152.328V285.343H157.248ZM165.406 298.525V308.616H160.565V291.162H165.179V294.241H165.384C165.77 293.226 166.418 292.423 167.327 291.832C168.236 291.234 169.338 290.934 170.634 290.934C171.846 290.934 172.902 291.2 173.804 291.73C174.706 292.26 175.406 293.018 175.906 294.003C176.406 294.98 176.656 296.147 176.656 297.503V308.616H171.815V298.366C171.823 297.298 171.55 296.465 170.997 295.866C170.444 295.26 169.683 294.957 168.713 294.957C168.062 294.957 167.486 295.097 166.986 295.378C166.493 295.658 166.107 296.067 165.827 296.605C165.554 297.135 165.414 297.775 165.406 298.525ZM186.689 308.616V285.343H195.871C197.636 285.343 199.14 285.681 200.382 286.355C201.624 287.022 202.571 287.95 203.223 289.139C203.882 290.321 204.212 291.684 204.212 293.23C204.212 294.775 203.878 296.139 203.212 297.321C202.545 298.503 201.579 299.423 200.314 300.082C199.056 300.741 197.533 301.071 195.746 301.071H189.893V297.128H194.95C195.897 297.128 196.677 296.965 197.291 296.639C197.912 296.306 198.374 295.847 198.677 295.264C198.988 294.673 199.143 293.995 199.143 293.23C199.143 292.457 198.988 291.783 198.677 291.207C198.374 290.624 197.912 290.173 197.291 289.855C196.67 289.529 195.882 289.366 194.927 289.366H191.609V308.616H186.689ZM206.677 308.616V291.162H211.37V294.207H211.552C211.87 293.124 212.404 292.306 213.154 291.753C213.904 291.192 214.768 290.912 215.745 290.912C215.987 290.912 216.249 290.927 216.529 290.957C216.809 290.987 217.055 291.029 217.268 291.082V295.378C217.04 295.309 216.726 295.249 216.324 295.196C215.923 295.143 215.555 295.116 215.222 295.116C214.51 295.116 213.874 295.272 213.313 295.582C212.76 295.885 212.321 296.309 211.995 296.855C211.677 297.4 211.518 298.029 211.518 298.741V308.616H206.677ZM226.272 308.957C224.477 308.957 222.932 308.593 221.636 307.866C220.348 307.131 219.356 306.093 218.659 304.753C217.962 303.404 217.613 301.809 217.613 299.968C217.613 298.173 217.962 296.597 218.659 295.241C219.356 293.885 220.337 292.828 221.602 292.071C222.875 291.313 224.367 290.934 226.079 290.934C227.231 290.934 228.303 291.12 229.295 291.491C230.295 291.855 231.166 292.404 231.909 293.139C232.659 293.874 233.242 294.798 233.659 295.912C234.075 297.018 234.284 298.313 234.284 299.798V301.128H219.545V298.128H229.727C229.727 297.431 229.575 296.813 229.272 296.275C228.969 295.737 228.549 295.317 228.011 295.014C227.481 294.703 226.863 294.548 226.159 294.548C225.424 294.548 224.772 294.718 224.204 295.059C223.644 295.393 223.204 295.843 222.886 296.412C222.568 296.972 222.405 297.597 222.397 298.287V301.139C222.397 302.003 222.557 302.749 222.875 303.378C223.2 304.006 223.659 304.491 224.25 304.832C224.841 305.173 225.541 305.343 226.352 305.343C226.89 305.343 227.382 305.268 227.829 305.116C228.276 304.965 228.659 304.737 228.977 304.434C229.295 304.131 229.538 303.76 229.704 303.321L234.182 303.616C233.954 304.692 233.488 305.631 232.784 306.434C232.087 307.23 231.185 307.851 230.079 308.298C228.981 308.737 227.712 308.957 226.272 308.957ZM251.326 296.139L246.894 296.412C246.818 296.033 246.655 295.692 246.405 295.389C246.155 295.078 245.826 294.832 245.417 294.65C245.015 294.461 244.534 294.366 243.973 294.366C243.223 294.366 242.591 294.525 242.076 294.843C241.56 295.154 241.303 295.571 241.303 296.093C241.303 296.51 241.47 296.862 241.803 297.15C242.136 297.438 242.708 297.669 243.519 297.843L246.678 298.48C248.375 298.828 249.64 299.389 250.473 300.162C251.307 300.934 251.723 301.95 251.723 303.207C251.723 304.351 251.386 305.355 250.712 306.218C250.045 307.082 249.129 307.756 247.962 308.241C246.803 308.718 245.466 308.957 243.951 308.957C241.64 308.957 239.799 308.476 238.428 307.514C237.064 306.544 236.265 305.226 236.03 303.559L240.792 303.309C240.935 304.014 241.284 304.552 241.837 304.923C242.39 305.287 243.098 305.468 243.962 305.468C244.81 305.468 245.492 305.306 246.007 304.98C246.53 304.647 246.795 304.218 246.803 303.696C246.795 303.256 246.61 302.897 246.246 302.616C245.882 302.328 245.322 302.109 244.564 301.957L241.542 301.355C239.837 301.014 238.568 300.423 237.735 299.582C236.909 298.741 236.496 297.669 236.496 296.366C236.496 295.245 236.799 294.279 237.405 293.468C238.019 292.658 238.879 292.033 239.985 291.593C241.098 291.154 242.401 290.934 243.894 290.934C246.098 290.934 247.833 291.4 249.098 292.332C250.371 293.264 251.113 294.533 251.326 296.139ZM259.109 308.946C257.995 308.946 257.003 308.753 256.132 308.366C255.26 307.972 254.571 307.393 254.063 306.628C253.563 305.855 253.313 304.893 253.313 303.741C253.313 302.772 253.491 301.957 253.848 301.298C254.204 300.639 254.688 300.109 255.302 299.707C255.916 299.306 256.613 299.003 257.393 298.798C258.181 298.593 259.007 298.45 259.87 298.366C260.885 298.26 261.704 298.162 262.325 298.071C262.946 297.972 263.397 297.828 263.677 297.639C263.957 297.45 264.098 297.169 264.098 296.798V296.73C264.098 296.01 263.87 295.453 263.416 295.059C262.969 294.665 262.332 294.468 261.507 294.468C260.635 294.468 259.942 294.662 259.427 295.048C258.912 295.427 258.571 295.904 258.404 296.48L253.927 296.116C254.154 295.056 254.601 294.139 255.268 293.366C255.935 292.586 256.794 291.987 257.848 291.571C258.908 291.147 260.135 290.934 261.529 290.934C262.499 290.934 263.427 291.048 264.313 291.275C265.207 291.503 265.999 291.855 266.688 292.332C267.385 292.809 267.935 293.423 268.336 294.173C268.738 294.915 268.938 295.806 268.938 296.843V308.616H264.348V306.196H264.211C263.931 306.741 263.556 307.222 263.086 307.639C262.616 308.048 262.052 308.37 261.393 308.605C260.734 308.832 259.973 308.946 259.109 308.946ZM260.495 305.605C261.207 305.605 261.836 305.465 262.382 305.184C262.927 304.897 263.355 304.51 263.666 304.025C263.976 303.54 264.132 302.991 264.132 302.378V300.525C263.98 300.624 263.772 300.715 263.507 300.798C263.249 300.874 262.957 300.946 262.632 301.014C262.306 301.075 261.98 301.131 261.654 301.184C261.329 301.23 261.033 301.272 260.768 301.309C260.2 301.393 259.704 301.525 259.279 301.707C258.855 301.889 258.526 302.135 258.291 302.446C258.056 302.749 257.938 303.128 257.938 303.582C257.938 304.241 258.177 304.745 258.654 305.093C259.139 305.434 259.753 305.605 260.495 305.605ZM276.895 285.343V308.616H272.054V285.343H276.895ZM288.087 308.957C286.292 308.957 284.747 308.593 283.451 307.866C282.163 307.131 281.171 306.093 280.474 304.753C279.777 303.404 279.428 301.809 279.428 299.968C279.428 298.173 279.777 296.597 280.474 295.241C281.171 293.885 282.152 292.828 283.417 292.071C284.69 291.313 286.182 290.934 287.894 290.934C289.046 290.934 290.118 291.12 291.11 291.491C292.11 291.855 292.981 292.404 293.724 293.139C294.474 293.874 295.057 294.798 295.474 295.912C295.89 297.018 296.099 298.313 296.099 299.798V301.128H281.36V298.128H291.542C291.542 297.431 291.39 296.813 291.087 296.275C290.784 295.737 290.364 295.317 289.826 295.014C289.296 294.703 288.678 294.548 287.974 294.548C287.239 294.548 286.587 294.718 286.019 295.059C285.459 295.393 285.019 295.843 284.701 296.412C284.383 296.972 284.22 297.597 284.212 298.287V301.139C284.212 302.003 284.372 302.749 284.69 303.378C285.015 304.006 285.474 304.491 286.065 304.832C286.656 305.173 287.356 305.343 288.167 305.343C288.705 305.343 289.197 305.268 289.644 305.116C290.091 304.965 290.474 304.737 290.792 304.434C291.11 304.131 291.353 303.76 291.519 303.321L295.997 303.616C295.769 304.692 295.303 305.631 294.599 306.434C293.902 307.23 293 307.851 291.894 308.298C290.796 308.737 289.527 308.957 288.087 308.957Z" fill="white"/>
</g>
</g>
<defs>
<filter id="filter0_b_3664_14248" x="-80.1766" y="-79.0555" width="607.984" height="609.984" filterUnits="userSpaceOnUse" color-interpolation-filters="sRGB">
<feFlood flood-opacity="0" result="BackgroundImageFix"/>
<feGaussianBlur in="BackgroundImageFix" stdDeviation="86.496"/>
<feComposite in2="SourceAlpha" operator="in" result="effect1_backgroundBlur_3664_14248"/>
<feBlend mode="normal" in="SourceGraphic" in2="effect1_backgroundBlur_3664_14248" result="shape"/>
</filter>
<radialGradient id="paint0_radial_3664_14248" cx="0" cy="0" r="1" gradientUnits="userSpaceOnUse" gradientTransform="translate(250.446 233.477) scale(224.9 224.9)">
<stop offset="0.49" stop-color="#B276FF"/>
<stop offset="1" stop-color="#5A03CA"/>
</radialGradient>
<radialGradient id="paint1_radial_3664_14248" cx="0" cy="0" r="1" gradientUnits="userSpaceOnUse" gradientTransform="translate(224.916 222.367) scale(197.83 197.83)">
<stop offset="0.35" stop-color="#D0E8FB"/>
<stop offset="1" stop-color="#0370CA"/>
</radialGradient>
<radialGradient id="paint2_radial_3664_14248" cx="0" cy="0" r="1" gradientUnits="userSpaceOnUse" gradientTransform="translate(225.905 219.447) scale(214.31 214.31)">
<stop offset="0.51" stop-color="#BCF9D9"/>
<stop offset="1" stop-color="#03CA61"/>
</radialGradient>
<clipPath id="clip0_3664_14248">
<rect width="448.37" height="449.15" fill="white" transform="translate(0.81543 0.936523)"/>
</clipPath>
</defs>
</svg>
